<?xml version="1.0" standalone="no"?>
<!DOCTYPE svg PUBLIC "-//W3C//DTD SVG 20010904//EN"
 "http://www.w3.org/TR/2001/REC-SVG-20010904/DTD/svg10.dtd">
<svg version="1.0" xmlns="http://www.w3.org/2000/svg"
 width="150.000000pt" height="151.000000pt" viewBox="0 0 150.000000 151.000000"
 preserveAspectRatio="xMidYMid meet">

<g transform="translate(0.000000,151.000000) scale(0.100000,-0.100000)"
fill="#000000" stroke="none">
<path d="M695 1308 c-76 -84 -125 -204 -125 -305 0 -39 -3 -44 -38 -62 -108
-55 -192 -153 -231 -269 -32 -95 -30 -108 27 -126 118 -39 252 -25 366 37 l62
34 34 -23 c62 -43 156 -68 250 -68 47 1 103 8 125 15 36 13 40 17 37 44 -12
120 -95 251 -204 325 l-68 45 0 56 c0 67 -22 148 -58 209 -26 46 -109 140
-122 140 -5 0 -29 -23 -55 -52z"/>
</g>
</svg>
